<svg width="36" height="36" viewBox="0 0 36 36" fill="none" xmlns="http://www.w3.org/2000/svg">
<g clip-path="url(#clip0_37_416)">
<path d="M17.6538 0C7.90398 0 0 7.90398 0 17.6538C0 25.9328 5.70007 32.8799 13.3894 34.788V23.0489H9.74916V17.6538H13.3894V15.3292C13.3894 9.32052 16.1088 6.53545 22.008 6.53545C23.1265 6.53545 25.0565 6.75507 25.8459 6.97397V11.8641C25.4293 11.8203 24.7055 11.7984 23.8066 11.7984C20.912 11.7984 19.7935 12.8951 19.7935 15.7458V17.6538H25.5599L24.5692 23.0489H19.7935V35.1785C28.535 34.1228 35.3084 26.6799 35.3084 17.6538C35.3077 7.90398 27.4037 0 17.6538 0Z" fill="white"/>
</g>
<defs>
<clipPath id="clip0_37_416">
<rect width="35.3077" height="35.3077" fill="white"/>
</clipPath>
</defs>
</svg>
