<svg width="37" height="36" viewBox="0 0 37 36" fill="none" xmlns="http://www.w3.org/2000/svg">
<g clip-path="url(#clip0_37_417)">
<path d="M18.5 3.17907C23.2169 3.17907 23.7755 3.19976 25.6305 3.28251C27.3545 3.35837 28.2855 3.648 28.9062 3.88936C29.7268 4.20658 30.3198 4.59276 30.9336 5.20651C31.5542 5.82715 31.9335 6.41331 32.2507 7.23394C32.4921 7.85458 32.7817 8.79244 32.8576 10.5096C32.9403 12.3715 32.961 12.9301 32.961 17.6401C32.961 22.3569 32.9403 22.9155 32.8576 24.7706C32.7817 26.4946 32.4921 27.4255 32.2507 28.0462C31.9335 28.8668 31.5473 29.4599 30.9336 30.0736C30.3129 30.6942 29.7268 31.0735 28.9062 31.3907C28.2855 31.6321 27.3476 31.9217 25.6305 31.9976C23.7686 32.0803 23.21 32.101 18.5 32.101C13.7832 32.101 13.2246 32.0803 11.3695 31.9976C9.64553 31.9217 8.71457 31.6321 8.09392 31.3907C7.27329 31.0735 6.68024 30.6873 6.06649 30.0736C5.44585 29.453 5.06656 28.8668 4.74935 28.0462C4.50799 27.4255 4.21835 26.4877 4.1425 24.7706C4.05974 22.9086 4.03905 22.35 4.03905 17.6401C4.03905 12.9232 4.05974 12.3646 4.1425 10.5096C4.21835 8.78555 4.50799 7.85458 4.74935 7.23394C5.06656 6.41331 5.45274 5.82025 6.06649 5.20651C6.68713 4.58586 7.27329 4.20658 8.09392 3.88936C8.71457 3.648 9.65243 3.35837 11.3695 3.28251C13.2246 3.19976 13.7832 3.17907 18.5 3.17907ZM18.5 0C13.7073 0 13.1073 0.0206881 11.2247 0.10344C9.349 0.186193 8.05944 0.489618 6.94228 0.924068C5.77686 1.37921 4.79072 1.97916 3.81149 2.96529C2.82535 3.94453 2.2254 4.93066 1.77026 6.0892C1.33581 7.21325 1.03238 8.49591 0.949632 10.3716C0.86688 12.2611 0.846191 12.8611 0.846191 17.6538C0.846191 22.4466 0.86688 23.0465 0.949632 24.9292C1.03238 26.8049 1.33581 28.0944 1.77026 29.2116C2.2254 30.377 2.82535 31.3632 3.81149 32.3424C4.79072 33.3216 5.77686 33.9285 6.93539 34.3767C8.05944 34.8112 9.3421 35.1146 11.2178 35.1974C13.1004 35.2801 13.7004 35.3008 18.4931 35.3008C23.2859 35.3008 23.8858 35.2801 25.7685 35.1974C27.6442 35.1146 28.9337 34.8112 30.0509 34.3767C31.2094 33.9285 32.1956 33.3216 33.1748 32.3424C34.154 31.3632 34.7609 30.377 35.2091 29.2185C35.6436 28.0944 35.947 26.8118 36.0298 24.9361C36.1125 23.0534 36.1332 22.4535 36.1332 17.6607C36.1332 12.868 36.1125 12.268 36.0298 10.3854C35.947 8.50971 35.6436 7.22015 35.2091 6.10299C34.7747 4.93066 34.1747 3.94453 33.1886 2.96529C32.2094 1.98606 31.2232 1.37921 30.0647 0.930964C28.9406 0.496514 27.658 0.193089 25.7822 0.110337C23.8927 0.0206881 23.2928 0 18.5 0Z" fill="white"/>
<path d="M18.4999 8.58545C13.4934 8.58545 9.43164 12.6472 9.43164 17.6537C9.43164 22.6603 13.4934 26.722 18.4999 26.722C23.5064 26.722 27.5682 22.6603 27.5682 17.6537C27.5682 12.6472 23.5064 8.58545 18.4999 8.58545ZM18.4999 23.536C15.2519 23.536 12.6176 20.9018 12.6176 17.6537C12.6176 14.4057 15.2519 11.7714 18.4999 11.7714C21.748 11.7714 24.3822 14.4057 24.3822 17.6537C24.3822 20.9018 21.748 23.536 18.4999 23.536Z" fill="white"/>
<path d="M30.044 8.22695C30.044 9.39928 29.0923 10.344 27.9269 10.344C26.7546 10.344 25.8098 9.39238 25.8098 8.22695C25.8098 7.05462 26.7615 6.10986 27.9269 6.10986C29.0923 6.10986 30.044 7.06152 30.044 8.22695Z" fill="white"/>
</g>
<defs>
<clipPath id="clip0_37_417">
<rect width="35.3077" height="35.3077" fill="white" transform="translate(0.846191)"/>
</clipPath>
</defs>
</svg>
