<svg width="36" height="36" viewBox="0 0 36 36" fill="none" xmlns="http://www.w3.org/2000/svg">
<path fill-rule="evenodd" clip-rule="evenodd" d="M18.3462 0C8.60024 0 0.692383 7.90785 0.692383 17.6538C0.692383 27.3999 8.60024 35.3077 18.3462 35.3077C28.0731 35.3077 36.0001 27.3999 36.0001 17.6538C36.0001 7.90785 28.0731 0 18.3462 0ZM30.0069 8.13762C32.1131 10.7034 33.3769 13.9775 33.4152 17.5198C32.9174 17.4241 27.939 16.4092 22.9224 17.0411C22.8076 16.7922 22.7118 16.5241 22.5969 16.2561C22.2905 15.5285 21.946 14.7818 21.6013 14.0733C27.154 11.814 29.6814 8.55886 30.0069 8.13762ZM18.3462 2.60404C22.1757 2.60404 25.6796 4.04009 28.3412 6.39522C28.0731 6.77816 25.7945 9.82259 20.4332 11.833C17.9633 7.29513 15.2252 3.58055 14.804 3.00613C15.9336 2.73807 17.1208 2.60404 18.3462 2.60404ZM11.9319 4.02094C12.334 4.55706 15.0146 8.2908 17.5229 12.7329C10.4767 14.6094 4.25379 14.5712 3.58363 14.5712C4.56014 9.89917 7.71945 6.01226 11.9319 4.02094ZM3.25813 17.673C3.25813 17.5198 3.25813 17.3666 3.25813 17.2135C3.90913 17.2326 11.2234 17.3284 18.7483 15.069C19.1888 15.9114 19.5908 16.773 19.9738 17.6346C19.7823 17.6921 19.5716 17.7496 19.3802 17.807C11.6064 20.3153 7.47054 27.17 7.12589 27.7445C4.73247 25.083 3.25813 21.5408 3.25813 17.673ZM18.3462 32.7419C14.8614 32.7419 11.6447 31.5548 9.09806 29.5635C9.36612 29.0082 12.4297 23.1109 20.9311 20.143C20.9694 20.1238 20.9886 20.1238 21.0269 20.1048C23.1522 25.6 24.0139 30.2144 24.2436 31.5356C22.4246 32.3207 20.4332 32.7419 18.3462 32.7419ZM26.7519 30.1571C26.5987 29.238 25.7945 24.8341 23.8223 19.4154C28.5518 18.6686 32.6875 19.8941 33.2046 20.0665C32.5536 24.2597 30.141 27.8785 26.7519 30.1571Z" fill="white"/>
</svg>
